<?xml version="1.0" encoding="UTF-8" standalone="no"?>
<svg
   xmlns:dc="http://purl.org/dc/elements/1.1/"
   xmlns:cc="http://creativecommons.org/ns#"
   xmlns:rdf="http://www.w3.org/1999/02/22-rdf-syntax-ns#"
   xmlns:svg="http://www.w3.org/2000/svg"
   xmlns="http://www.w3.org/2000/svg"
   xmlns:sodipodi="http://sodipodi.sourceforge.net/DTD/sodipodi-0.dtd"
   xmlns:inkscape="http://www.inkscape.org/namespaces/inkscape"
   width="456mm"
   height="303mm"
   viewBox="0 0 456 303"
   version="1.1"
   preserveAspectRatio="xMidYMid meet"
   id="svg130"
   sodipodi:docname="box.svg"
   inkscape:version="1.0.2 (394de47547, 2021-03-26)">
  <metadata
     id="metadata136">
    <rdf:RDF>
      <cc:Work
         rdf:about="">
        <dc:format>image/svg+xml</dc:format>
        <dc:type
           rdf:resource="http://purl.org/dc/dcmitype/StillImage" />
        <dc:title></dc:title>
      </cc:Work>
    </rdf:RDF>
  </metadata>
  <defs
     id="defs134" />
  <sodipodi:namedview
     pagecolor="#ffffff"
     bordercolor="#666666"
     borderopacity="1"
     objecttolerance="10"
     gridtolerance="10"
     guidetolerance="10"
     inkscape:pageopacity="0"
     inkscape:pageshadow="2"
     inkscape:window-width="1853"
     inkscape:window-height="1025"
     id="namedview132"
     showgrid="false"
     inkscape:zoom="0.69558608"
     inkscape:cx="857.73697"
     inkscape:cy="567.00078"
     inkscape:window-x="67"
     inkscape:window-y="27"
     inkscape:window-maximized="1"
     inkscape:current-layer="svgGroup" />
  <g
     id="svgGroup"
     stroke-linecap="round"
     fill-rule="evenodd"
     font-size="12px"
     stroke="#000"
     stroke-width="0.25mm"
     fill="none"
     style="fill:none;stroke:#000000;stroke-width:0.25mm"
     transform="translate(-0.36809329,-1.082503)">
    <path
       d="m 5.13731,174.45906 v 12.813 h 3 v 24.375 h -3 v 12.812 h 38.438 v -3 h 24.375 v 3 h 24.375 v -3 h 24.375 v 3 h 24.375 14.062 v -12.812 h -3 v -24.375 h 3 v -12.813 h -38.437 v 3 h -24.375 v -3 h -24.375 v 3 h -24.375 v -3 h -24.375 z"
       id="front_outsideCutPath"
       stroke="#FF0000"
       stroke-width="0.1"
       style="stroke:#ff0000;stroke-width:0.529167;stroke-miterlimit:4;stroke-dasharray:none"
       vector-effect="non-scaling-stroke" />
    <path
       d="m 90.876263,206.76997 h -0.811 v -3.462 a 2.291,2.291 0 0 0 -0.026,-0.359 q -0.062,-0.391 -0.272,-0.618 a 0.914,0.914 0 0 0 -0.375,-0.239 q -0.235,-0.083 -0.557,-0.083 a 2.453,2.453 0 0 0 -0.459,0.04 q -0.497,0.095 -0.772,0.414 -0.357,0.415 -0.388,1.323 a 5.193,5.193 0 0 0 -0.003,0.176 v 2.808 h -0.81 v -5.352 h 0.659 l 0.132,0.733 h 0.039 a 1.641,1.641 0 0 1 0.643,-0.585 1.974,1.974 0 0 1 0.055,-0.028 2.195,2.195 0 0 1 0.781,-0.209 2.654,2.654 0 0 1 0.22,-0.008 3.2,3.2 0 0 1 0.545,0.043 q 0.571,0.099 0.91,0.423 a 1.405,1.405 0 0 1 0.343,0.537 q 0.082,0.222 0.118,0.496 a 3.537,3.537 0 0 1 0.028,0.459 z m -15.572,-5.352 v 0.63 h -1.362 v 4.722 h -0.811 v -4.722 h -0.957 v -0.366 l 0.957,-0.293 v -0.298 a 3.285,3.285 0 0 1 0.077,-0.744 q 0.287,-1.229 1.647,-1.229 a 2.61,2.61 0 0 1 0.369,0.029 q 0.18,0.025 0.38,0.075 a 5.247,5.247 0 0 1 0.247,0.067 l -0.21,0.65 q -0.333,-0.108 -0.597,-0.139 a 1.743,1.743 0 0 0 -0.204,-0.013 1.093,1.093 0 0 0 -0.263,0.03 0.702,0.702 0 0 0 -0.415,0.276 q -0.22,0.305 -0.22,0.979 v 0.346 z m 19.698,4.683 v 0.62 a 0.797,0.797 0 0 1 -0.095,0.037 q -0.101,0.034 -0.245,0.06 a 3.033,3.033 0 0 1 -0.049,0.008 q -0.256,0.041 -0.461,0.041 a 2.117,2.117 0 0 1 -0.624,-0.084 q -0.929,-0.286 -0.929,-1.551 v -3.184 h -0.766 v -0.391 l 0.766,-0.336 0.342,-1.143 h 0.469 v 1.24 h 1.553 v 0.63 h -1.553 v 3.149 a 1.632,1.632 0 0 0 0.023,0.287 q 0.028,0.157 0.09,0.282 a 0.786,0.786 0 0 0 0.116,0.174 q 0.23,0.258 0.63,0.258 a 2.662,2.662 0 0 0 0.39,-0.027 2.453,2.453 0 0 0 0.025,-0.004 q 0.2,-0.032 0.318,-0.066 z m -15.64,-4.722 -0.112,0.752 q -0.277,-0.061 -0.499,-0.071 a 1.901,1.901 0 0 0 -0.087,-0.002 q -0.65,0 -1.111,0.527 a 1.851,1.851 0 0 0 -0.447,1.039 2.46,2.46 0 0 0 -0.015,0.275 v 2.871 h -0.81 v -5.352 h 0.669 l 0.093,0.991 h 0.039 a 2.737,2.737 0 0 1 0.306,-0.437 2.091,2.091 0 0 1 0.411,-0.368 q 0.42,-0.283 0.923,-0.283 a 3.721,3.721 0 0 1 0.333,0.014 2.716,2.716 0 0 1 0.307,0.044 z m 5.546,3.525 a 4.187,4.187 0 0 0 0.074,-0.815 q 0,-0.52 -0.11,-0.952 a 2.524,2.524 0 0 0 -0.552,-1.069 2.122,2.122 0 0 0 -0.985,-0.636 2.724,2.724 0 0 0 -0.799,-0.111 3.148,3.148 0 0 0 -0.566,0.048 2.144,2.144 0 0 0 -1.251,0.682 2.239,2.239 0 0 0 -0.275,0.381 q -0.379,0.661 -0.379,1.657 a 4.055,4.055 0 0 0 0.051,0.657 2.998,2.998 0 0 0 0.252,0.818 2.664,2.664 0 0 0 0.059,0.115 2.194,2.194 0 0 0 0.8,0.851 q 0.557,0.337 1.275,0.337 a 3.147,3.147 0 0 0 0.549,-0.046 2.161,2.161 0 0 0 1.272,-0.688 2.261,2.261 0 0 0 0.269,-0.37 q 0.22,-0.376 0.316,-0.859 z m -4.003,-0.815 q 0,1.025 0.41,1.563 a 1.328,1.328 0 0 0 0.865,0.509 2.013,2.013 0 0 0 0.341,0.028 1.883,1.883 0 0 0 0.497,-0.062 1.31,1.31 0 0 0 0.712,-0.473 1.74,1.74 0 0 0 0.271,-0.528 q 0.079,-0.244 0.114,-0.541 a 4.27,4.27 0 0 0 0.027,-0.496 4.044,4.044 0 0 0 -0.038,-0.576 q -0.042,-0.294 -0.132,-0.531 a 1.669,1.669 0 0 0 -0.242,-0.443 1.333,1.333 0 0 0 -0.829,-0.495 2.044,2.044 0 0 0 -0.39,-0.035 1.929,1.929 0 0 0 -0.48,0.056 1.291,1.291 0 0 0 -0.721,0.466 q -0.405,0.523 -0.405,1.558 z"
       id="front_labelLayer"
       stroke="#777777"
       fill="#777777"
       style="fill:#777777;stroke:#777777"
       vector-effect="non-scaling-stroke" />
    <path
       d="m 11.271919,243.63239 v 12.813 H 8.2719186 v 24.375 h 3.0000004 v 12.812 h 35.438 v -3 h 24.375 v 3 h 24.375 v -3 h 24.375001 v 3 h 24.375 11.062 v -12.812 h 3 v -24.375 h -3 v -12.813 h -35.437 v 3 H 95.459919 v -3 h -24.375 v 3 h -24.375 v -3 h -24.375 z"
       id="left_outsideCutPath"
       stroke="#FF0000"
       stroke-width="0.1"
       style="stroke:#ff0000;stroke-width:0.529167;stroke-miterlimit:4;stroke-dasharray:none"
       vector-effect="non-scaling-stroke" />
    <path
       d="m 88.921432,264.31423 v 0.63 h -1.362 v 4.722 h -0.811 v -4.722 h -0.957 v -0.366 l 0.957,-0.293 v -0.298 a 3.285,3.285 0 0 1 0.077,-0.744 q 0.287,-1.229 1.647,-1.229 a 2.61,2.61 0 0 1 0.369,0.029 q 0.18,0.025 0.38,0.075 a 5.247,5.247 0 0 1 0.247,0.067 l -0.21,0.65 q -0.333,-0.108 -0.597,-0.139 a 1.743,1.743 0 0 0 -0.204,-0.013 1.093,1.093 0 0 0 -0.263,0.03 0.702,0.702 0 0 0 -0.415,0.276 q -0.22,0.305 -0.22,0.979 v 0.346 z m -3.794,2.31 v 0.512 h -3.686 q 0.016,0.644 0.232,1.076 a 1.522,1.522 0 0 0 0.244,0.355 1.473,1.473 0 0 0 0.773,0.436 2.232,2.232 0 0 0 0.499,0.052 4.281,4.281 0 0 0 1.603,-0.317 4.905,4.905 0 0 0 0.106,-0.044 v 0.723 a 4.866,4.866 0 0 1 -0.444,0.167 3.721,3.721 0 0 1 -0.369,0.099 q -0.384,0.08 -0.926,0.08 a 3.15,3.15 0 0 1 -0.788,-0.093 2.23,2.23 0 0 1 -1.084,-0.629 q -0.647,-0.681 -0.684,-1.861 a 4.63,4.63 0 0 1 -0.002,-0.146 4.256,4.256 0 0 1 0.079,-0.844 q 0.103,-0.513 0.344,-0.912 a 2.4,2.4 0 0 1 0.214,-0.3 2.077,2.077 0 0 1 1.514,-0.755 2.865,2.865 0 0 1 0.197,-0.006 2.469,2.469 0 0 1 0.696,0.093 1.879,1.879 0 0 1 0.896,0.568 2.266,2.266 0 0 1 0.514,1.036 3.299,3.299 0 0 1 0.072,0.71 z m 7.232,2.373 v 0.62 a 0.797,0.797 0 0 1 -0.095,0.037 q -0.101,0.034 -0.245,0.06 a 3.033,3.033 0 0 1 -0.049,0.008 q -0.256,0.041 -0.461,0.041 a 2.117,2.117 0 0 1 -0.624,-0.084 q -0.929,-0.286 -0.929,-1.551 v -3.184 h -0.766 v -0.391 l 0.766,-0.336 0.342,-1.143 h 0.469 v 1.24 h 1.553 v 0.63 h -1.553 v 3.149 a 1.632,1.632 0 0 0 0.023,0.287 q 0.028,0.157 0.09,0.282 a 0.786,0.786 0 0 0 0.116,0.174 q 0.23,0.258 0.63,0.258 a 2.662,2.662 0 0 0 0.39,-0.027 2.453,2.453 0 0 0 0.025,-0.004 q 0.2,-0.032 0.318,-0.066 z m -13.179,-6.929 v 7.598 h -0.811 v -7.598 z m 2.28,4.409 h 2.798 q 0,-0.518 -0.156,-0.873 a 1.254,1.254 0 0 0 -0.186,-0.301 1.11,1.11 0 0 0 -0.668,-0.381 1.666,1.666 0 0 0 -0.308,-0.027 q -0.645,0 -1.028,0.42 a 1.601,1.601 0 0 0 -0.319,0.537 q -0.101,0.277 -0.133,0.625 z"
       id="left_labelLayer"
       stroke="#777777"
       fill="#777777"
       style="fill:#777777;stroke:#777777"
       vector-effect="non-scaling-stroke" />
    <path
       d="m 307.75607,154.61471 v 35.438 h -3 v 24.375 h 3 v 24.375 h -3 v 24.375 h 3 v 24.375 11.062 h 35.438 v 3 h 24.375 v -3 h 24.375 v 3 h 24.375 v -3 h 24.375 11.062 v -35.437 h 3 v -24.375 h -3 v -24.375 h 3 v -24.375 h -3 v -24.375 -11.063 h -35.437 v -3 h -24.375 v 3 h -24.375 v -3 h -24.375 v 3 h -24.375 z"
       id="top_outsideCutPath"
       stroke="#FF0000"
       stroke-width="0.1"
       style="stroke:#ff0000;stroke-width:0.529167;stroke-miterlimit:4;stroke-dasharray:none"
       vector-effect="non-scaling-stroke" />
    <path
       d="m 391.781,232.219 h -0.176 q 0.176,1.406 0.176,2.666 v 6.606 h -2.432 v -23.262 h 1.978 l 0.337,2.198 h 0.117 a 6.545,6.545 0 0 1 0.947,-1.075 5.061,5.061 0 0 1 1.236,-0.83 6.09,6.09 0 0 1 1.745,-0.51 7.882,7.882 0 0 1 1.111,-0.075 7.454,7.454 0 0 1 2.106,0.281 5.509,5.509 0 0 1 2.823,1.901 q 1.736,2.183 1.736,6.123 a 14.257,14.257 0 0 1 -0.189,2.399 q -0.388,2.273 -1.576,3.746 a 5.757,5.757 0 0 1 -4.091,2.152 8.247,8.247 0 0 1 -0.809,0.038 7.376,7.376 0 0 1 -1.853,-0.226 6.418,6.418 0 0 1 -1.011,-0.352 5.386,5.386 0 0 1 -2.175,-1.78 z m -23.76,0.058 v 1.861 a 2.392,2.392 0 0 1 -0.283,0.112 q -0.352,0.117 -0.881,0.203 -0.718,0.116 -1.302,0.124 a 6.232,6.232 0 0 1 -0.082,0 6.351,6.351 0 0 1 -1.872,-0.252 q -2.057,-0.635 -2.596,-2.869 a 7.643,7.643 0 0 1 -0.191,-1.786 v -9.551 h -2.299 v -1.172 l 2.299,-1.01 1.026,-3.428 h 1.406 v 3.72 h 4.658 v 1.89 h -4.658 v 9.448 q 0,1.019 0.34,1.706 a 2.359,2.359 0 0 0 0.348,0.521 2.259,2.259 0 0 0 1.389,0.739 3.25,3.25 0 0 0 0.501,0.037 7.986,7.986 0 0 0 1.17,-0.083 7.359,7.359 0 0 0 0.075,-0.012 13.154,13.154 0 0 0 0.351,-0.06 q 0.36,-0.067 0.601,-0.138 z m 16.843,-3.591 a 12.56,12.56 0 0 0 0.223,-2.444 14.272,14.272 0 0 0 -0.005,-0.386 q -0.037,-1.337 -0.326,-2.472 a 7.572,7.572 0 0 0 -1.654,-3.206 6.366,6.366 0 0 0 -2.955,-1.906 8.171,8.171 0 0 0 -2.399,-0.335 9.444,9.444 0 0 0 -1.696,0.145 6.432,6.432 0 0 0 -3.753,2.044 q -1.963,2.19 -1.963,6.116 a 12.165,12.165 0 0 0 0.153,1.971 8.995,8.995 0 0 0 0.755,2.453 7.992,7.992 0 0 0 0.177,0.347 6.583,6.583 0 0 0 2.401,2.553 6.771,6.771 0 0 0 1.554,0.691 7.809,7.809 0 0 0 2.269,0.32 9.442,9.442 0 0 0 1.649,-0.138 6.483,6.483 0 0 0 3.815,-2.066 6.783,6.783 0 0 0 0.808,-1.11 q 0.659,-1.127 0.947,-2.577 z m -12.009,-2.444 a 12.314,12.314 0 0 0 0.118,1.759 q 0.129,0.893 0.4,1.617 a 5.101,5.101 0 0 0 0.713,1.312 3.985,3.985 0 0 0 2.595,1.528 6.039,6.039 0 0 0 1.023,0.083 5.648,5.648 0 0 0 1.49,-0.185 3.931,3.931 0 0 0 2.135,-1.419 5.22,5.22 0 0 0 0.813,-1.583 q 0.239,-0.732 0.344,-1.625 a 12.809,12.809 0 0 0 0.081,-1.487 12.133,12.133 0 0 0 -0.115,-1.729 q -0.262,-1.817 -1.123,-2.922 a 4,4 0 0 0 -2.486,-1.483 6.133,6.133 0 0 0 -1.168,-0.106 5.787,5.787 0 0 0 -1.441,0.169 3.873,3.873 0 0 0 -2.163,1.398 5.028,5.028 0 0 0 -0.781,1.511 q -0.435,1.306 -0.435,3.162 z m 18.926,-0.542 v 0.542 a 16.078,16.078 0 0 0 0.08,1.662 q 0.175,1.677 0.734,2.697 a 3.668,3.668 0 0 0 0.314,0.482 3.528,3.528 0 0 0 1.79,1.208 q 0.598,0.188 1.327,0.234 a 7.819,7.819 0 0 0 0.501,0.016 4.097,4.097 0 0 0 1.593,-0.299 q 0.919,-0.384 1.575,-1.259 a 4.845,4.845 0 0 0 0.091,-0.127 q 1.18,-1.684 1.18,-4.643 a 12.271,12.271 0 0 0 -0.115,-1.74 q -0.127,-0.882 -0.393,-1.599 a 5.155,5.155 0 0 0 -0.672,-1.268 3.783,3.783 0 0 0 -2.766,-1.576 5.232,5.232 0 0 0 -0.551,-0.028 7.006,7.006 0 0 0 -1.309,0.114 q -0.729,0.139 -1.289,0.447 a 3.213,3.213 0 0 0 -0.962,0.801 q -1.028,1.276 -1.12,3.963 a 15.476,15.476 0 0 0 -0.008,0.373 z"
       id="top_labelLayer"
       stroke="#777777"
       fill="#777777"
       style="fill:#777777;stroke:#777777"
       vector-effect="non-scaling-stroke" />
    <path
       d="m 8.0245497,32.149125 v 12.813 H 11.02455 v 24.375 H 8.0245497 v 12.812 H 46.46255 v -3 h 24.375 v 3 h 24.375 v -3 h 24.375 v 3 h 24.375 14.062 v -12.812 h -3 v -24.375 h 3 v -12.813 h -38.437 v 3 h -24.375 v -3 h -24.375 v 3 h -24.375 v -3 h -24.375 z"
       id="back_outsideCutPath"
       stroke="#FF0000"
       stroke-width="0.1"
       style="stroke:#ff0000;stroke-width:0.52916665;stroke-opacity:1;stroke-miterlimit:4;stroke-dasharray:none"
       vector-effect="non-scaling-stroke" />
    <path
       d="m 91.88934,61.461763 h 0.039 a 4.798,4.798 0 0 1 0.118,-0.161 q 0.137,-0.177 0.332,-0.404 a 17.416,17.416 0 0 1 0.189,-0.217 l 1.729,-1.831 h 0.962 l -2.168,2.281 2.319,3.071 h -0.981 l -1.89,-2.529 -0.61,0.527 v 2.002 h -0.801 v -7.598 h 0.801 v 4.029 a 5.402,5.402 0 0 1 -0.003,0.152 q -0.007,0.25 -0.035,0.657 a 33.76,33.76 0 0 1 -10e-4,0.021 z m -16.402,2.05 h -0.058 l -0.171,0.689 h -0.581 v -7.598 h 0.81 v 1.846 q 0,0.6 -0.036,1.081 a 10.075,10.075 0 0 1 -0.003,0.032 h 0.039 a 1.843,1.843 0 0 1 1.345,-0.781 2.768,2.768 0 0 1 0.335,-0.02 2.477,2.477 0 0 1 0.697,0.094 1.854,1.854 0 0 1 0.941,0.627 q 0.467,0.576 0.561,1.537 a 5.203,5.203 0 0 1 0.023,0.501 4.752,4.752 0 0 1 -0.063,0.8 q -0.073,0.426 -0.23,0.768 a 2.278,2.278 0 0 1 -0.296,0.481 1.919,1.919 0 0 1 -1.363,0.717 2.749,2.749 0 0 1 -0.27,0.013 q -0.522,0 -0.955,-0.193 a 1.795,1.795 0 0 1 -0.725,-0.594 z m 9.209,0.689 h -0.6 l -0.161,-0.762 h -0.039 a 3.36,3.36 0 0 1 -0.272,0.305 q -0.264,0.259 -0.527,0.376 a 1.869,1.869 0 0 1 -0.386,0.122 q -0.272,0.057 -0.607,0.057 a 2.487,2.487 0 0 1 -0.507,-0.049 q -0.309,-0.064 -0.547,-0.214 a 1.396,1.396 0 0 1 -0.194,-0.148 1.332,1.332 0 0 1 -0.402,-0.702 2.039,2.039 0 0 1 -0.05,-0.465 1.403,1.403 0 0 1 0.798,-1.323 q 0.641,-0.341 1.795,-0.376 l 0.908,-0.029 v -0.332 a 2.328,2.328 0 0 0 -0.022,-0.337 q -0.026,-0.172 -0.079,-0.31 a 0.905,0.905 0 0 0 -0.17,-0.283 q -0.216,-0.24 -0.639,-0.288 a 2.003,2.003 0 0 0 -0.227,-0.013 2.639,2.639 0 0 0 -0.608,0.076 q -0.278,0.066 -0.582,0.19 a 5.428,5.428 0 0 0 -0.324,0.145 l -0.249,-0.621 a 3.737,3.737 0 0 1 0.721,-0.296 4.254,4.254 0 0 1 0.146,-0.04 3.754,3.754 0 0 1 0.944,-0.123 3.423,3.423 0 0 1 0.522,0.037 q 0.572,0.089 0.897,0.388 a 1.284,1.284 0 0 1 0.331,0.511 q 0.077,0.21 0.109,0.471 a 3.189,3.189 0 0 1 0.021,0.381 z m 5.24,-5.171 -0.249,0.689 a 3.606,3.606 0 0 0 -0.392,-0.131 4.306,4.306 0 0 0 -0.194,-0.048 q -0.272,-0.06 -0.49,-0.069 a 1.797,1.797 0 0 0 -0.072,-0.002 1.798,1.798 0 0 0 -0.73,0.138 q -0.901,0.397 -0.901,1.943 a 3.925,3.925 0 0 0 0.039,0.571 q 0.043,0.29 0.133,0.525 a 1.681,1.681 0 0 0 0.226,0.417 1.287,1.287 0 0 0 0.834,0.499 1.961,1.961 0 0 0 0.345,0.029 3.393,3.393 0 0 0 0.936,-0.137 4.189,4.189 0 0 0 0.436,-0.151 v 0.717 a 2.306,2.306 0 0 1 -0.564,0.2 q -0.26,0.058 -0.563,0.073 a 4.445,4.445 0 0 1 -0.225,0.006 3.029,3.029 0 0 1 -0.737,-0.085 2.054,2.054 0 0 1 -1.062,-0.631 2.345,2.345 0 0 1 -0.488,-0.895 q -0.108,-0.356 -0.138,-0.783 a 4.901,4.901 0 0 1 -0.012,-0.346 4.472,4.472 0 0 1 0.07,-0.813 q 0.084,-0.454 0.27,-0.811 a 2.235,2.235 0 0 1 0.307,-0.451 2.099,2.099 0 0 1 1.15,-0.661 3.182,3.182 0 0 1 0.694,-0.071 q 0.385,0 0.771,0.083 a 4.046,4.046 0 0 1 0.225,0.054 q 0.23,0.064 0.381,0.141 z m -13.769,0.611 a 1.078,1.078 0 0 0 -0.313,0.275 q -0.367,0.476 -0.367,1.604 a 5.359,5.359 0 0 0 0.027,0.554 q 0.058,0.559 0.245,0.899 a 1.222,1.222 0 0 0 0.104,0.161 1.176,1.176 0 0 0 0.597,0.403 q 0.199,0.062 0.442,0.078 a 2.606,2.606 0 0 0 0.167,0.005 1.616,1.616 0 0 0 0.459,-0.062 1.166,1.166 0 0 0 0.655,-0.483 q 0.366,-0.544 0.366,-1.564 a 4.789,4.789 0 0 0 -0.029,-0.546 q -0.074,-0.644 -0.337,-1.012 -0.367,-0.513 -1.133,-0.513 -0.54,0 -0.883,0.201 z m 7.719,2.412 v -0.484 l -0.811,0.034 q -0.967,0.034 -1.394,0.301 a 0.865,0.865 0 0 0 -0.412,0.627 1.28,1.28 0 0 0 -0.015,0.2 1.158,1.158 0 0 0 0.029,0.266 q 0.048,0.204 0.177,0.345 a 0.722,0.722 0 0 0 0.06,0.058 0.882,0.882 0 0 0 0.331,0.176 q 0.13,0.038 0.287,0.049 a 1.823,1.823 0 0 0 0.127,0.005 2.232,2.232 0 0 0 0.482,-0.049 q 0.335,-0.075 0.583,-0.261 a 1.353,1.353 0 0 0 0.124,-0.105 q 0.432,-0.415 0.432,-1.162 z"
       id="back_labelLayer"
       stroke="#777777"
       fill="#777777"
       style="fill:#777777;stroke:#777777"
       vector-effect="non-scaling-stroke" />
    <path
       d="m 8.4961864,102.27702 v 12.813 h -3 v 24.375 h 3 v 12.812 H 43.934186 v -3 h 24.375 v 3 h 24.375 v -3 h 24.375004 v 3 h 24.375 11.062 v -12.812 h 3 v -24.375 h -3 v -12.813 h -35.437 v 3 H 92.684186 v -3 h -24.375 v 3 h -24.375 v -3 h -24.375 z"
       id="right_outsideCutPath"
       stroke="#FF0000"
       stroke-width="0.1"
       style="stroke:#ff0000;stroke-width:0.529167;stroke-miterlimit:4;stroke-dasharray:none"
       vector-effect="non-scaling-stroke" />
    <path
       d="m 88.118106,128.41836 h -0.81 v -3.462 a 2.291,2.291 0 0 0 -0.027,-0.36 q -0.062,-0.39 -0.271,-0.617 a 0.914,0.914 0 0 0 -0.375,-0.239 q -0.235,-0.083 -0.558,-0.083 a 2.453,2.453 0 0 0 -0.458,0.04 q -0.255,0.048 -0.45,0.156 a 1.135,1.135 0 0 0 -0.325,0.263 1.349,1.349 0 0 0 -0.229,0.405 q -0.138,0.372 -0.156,0.924 a 5.231,5.231 0 0 0 -0.003,0.175 v 2.798 h -0.81 v -7.598 h 0.81 v 2.3 a 7.291,7.291 0 0 1 -0.005,0.28 q -0.005,0.131 -0.015,0.244 a 3.171,3.171 0 0 1 -0.019,0.164 h 0.049 a 1.619,1.619 0 0 1 0.567,-0.546 1.978,1.978 0 0 1 0.114,-0.062 2.081,2.081 0 0 1 0.683,-0.202 2.631,2.631 0 0 1 0.325,-0.02 3.288,3.288 0 0 1 0.553,0.043 q 0.294,0.051 0.526,0.159 a 1.461,1.461 0 0 1 0.394,0.264 1.411,1.411 0 0 1 0.348,0.547 q 0.142,0.388 0.142,0.935 z m -7.422,-5.352 h 1.851 v 0.513 l -0.991,0.117 q 0.136,0.171 0.244,0.447 0.107,0.276 0.107,0.622 a 1.858,1.858 0 0 1 -0.085,0.576 1.503,1.503 0 0 1 -0.452,0.679 q -0.484,0.422 -1.292,0.464 a 3.521,3.521 0 0 1 -0.182,0.005 2.605,2.605 0 0 1 -0.302,-0.017 2.2,2.2 0 0 1 -0.148,-0.022 1.442,1.442 0 0 0 -0.232,0.15 q -0.12,0.097 -0.19,0.208 a 0.61,0.61 0 0 0 -0.095,0.33 q 0,0.22 0.18,0.325 0.181,0.105 0.621,0.105 h 0.947 a 3.318,3.318 0 0 1 0.504,0.036 q 0.263,0.04 0.476,0.127 a 1.465,1.465 0 0 1 0.355,0.203 1.186,1.186 0 0 1 0.441,0.756 1.781,1.781 0 0 1 0.026,0.309 q 0,0.888 -0.713,1.355 -0.497,0.325 -1.313,0.423 a 6.424,6.424 0 0 1 -0.767,0.043 4.541,4.541 0 0 1 -0.61,-0.038 q -0.618,-0.084 -1.009,-0.353 a 1.292,1.292 0 0 1 -0.416,-0.452 q -0.134,-0.247 -0.15,-0.56 a 1.711,1.711 0 0 1 -0.003,-0.091 1.239,1.239 0 0 1 0.313,-0.845 q 0.312,-0.356 0.879,-0.483 a 0.841,0.841 0 0 1 -0.327,-0.264 0.999,0.999 0 0 1 -0.018,-0.024 0.751,0.751 0 0 1 -0.138,-0.407 0.931,0.931 0 0 1 -10e-4,-0.047 0.927,0.927 0 0 1 0.047,-0.299 0.821,0.821 0 0 1 0.109,-0.214 1.16,1.16 0 0 1 0.154,-0.173 q 0.081,-0.076 0.186,-0.151 a 2.546,2.546 0 0 1 0.154,-0.101 1.421,1.421 0 0 1 -0.618,-0.494 1.761,1.761 0 0 1 -0.059,-0.087 1.676,1.676 0 0 1 -0.257,-0.808 2.045,2.045 0 0 1 -0.004,-0.13 q 0,-0.878 0.527,-1.355 a 1.721,1.721 0 0 1 0.661,-0.364 q 0.263,-0.08 0.578,-0.103 a 3.58,3.58 0 0 1 0.256,-0.009 3.107,3.107 0 0 1 0.411,0.026 2.366,2.366 0 0 1 0.345,0.072 z m 11.548,4.683 v 0.62 a 0.797,0.797 0 0 1 -0.094,0.037 q -0.101,0.034 -0.246,0.06 a 3.033,3.033 0 0 1 -0.048,0.008 q -0.256,0.041 -0.461,0.041 a 2.117,2.117 0 0 1 -0.624,-0.084 q -0.929,-0.286 -0.929,-1.551 v -3.184 h -0.767 v -0.391 l 0.767,-0.337 0.342,-1.142 h 0.468 v 1.24 h 1.553 v 0.63 h -1.553 v 3.149 a 1.632,1.632 0 0 0 0.024,0.287 q 0.028,0.157 0.09,0.282 a 0.786,0.786 0 0 0 0.116,0.174 q 0.229,0.258 0.63,0.258 a 2.662,2.662 0 0 0 0.39,-0.028 2.453,2.453 0 0 0 0.025,-0.003 q 0.2,-0.032 0.317,-0.066 z m -17.607,-4.722 -0.112,0.752 q -0.277,-0.061 -0.499,-0.071 a 1.901,1.901 0 0 0 -0.087,-0.002 q -0.65,0 -1.111,0.527 a 1.851,1.851 0 0 0 -0.447,1.039 2.46,2.46 0 0 0 -0.015,0.275 v 2.871 h -0.81 v -5.352 h 0.669 l 0.092,0.991 h 0.04 a 2.737,2.737 0 0 1 0.306,-0.437 2.091,2.091 0 0 1 0.411,-0.368 q 0.42,-0.284 0.923,-0.284 a 3.721,3.721 0 0 1 0.333,0.015 2.716,2.716 0 0 1 0.307,0.044 z m 1.811,0.039 v 5.352 h -0.81 v -5.352 z m 3.97,5.23 h -0.972 a 1.863,1.863 0 0 0 -0.335,0.028 q -0.317,0.058 -0.524,0.235 -0.308,0.264 -0.308,0.757 a 0.814,0.814 0 0 0 0.054,0.302 q 0.087,0.219 0.313,0.357 0.366,0.225 1.049,0.225 a 5.449,5.449 0 0 0 0.533,-0.024 q 0.533,-0.053 0.868,-0.22 a 1.346,1.346 0 0 0 0.111,-0.061 q 0.49,-0.305 0.49,-0.828 a 1.097,1.097 0 0 0 -0.02,-0.218 q -0.053,-0.263 -0.248,-0.385 a 0.769,0.769 0 0 0 -0.182,-0.08 q -0.29,-0.088 -0.829,-0.088 z m -1.699,-3.516 a 1.582,1.582 0 0 0 0.032,0.332 q 0.07,0.322 0.285,0.518 0.318,0.288 0.884,0.288 0.937,0 1.134,-0.719 a 1.642,1.642 0 0 0 0.053,-0.434 q 0,-0.957 -0.757,-1.154 a 1.763,1.763 0 0 0 -0.445,-0.052 q -0.437,0 -0.72,0.181 a 0.933,0.933 0 0 0 -0.159,0.127 q -0.261,0.261 -0.3,0.736 a 2.132,2.132 0 0 0 -0.007,0.177 z m -3.013,-3.572 a 0.379,0.379 0 0 0 -0.084,0.119 q -0.053,0.116 -0.053,0.289 0,0.138 0.035,0.24 a 0.418,0.418 0 0 0 0.102,0.168 q 0.137,0.134 0.342,0.134 a 0.473,0.473 0 0 0 0.337,-0.134 0.396,0.396 0 0 0 0.077,-0.103 q 0.035,-0.066 0.051,-0.151 a 0.839,0.839 0 0 0 0.013,-0.154 0.927,0.927 0 0 0 -0.004,-0.088 q -0.019,-0.208 -0.137,-0.317 a 0.478,0.478 0 0 0 -0.337,-0.132 0.619,0.619 0 0 0 -0.041,0.001 0.469,0.469 0 0 0 -0.301,0.128 z"
       id="right_labelLayer"
       stroke="#777777"
       fill="#777777"
       style="fill:#777777;stroke:#777777"
       vector-effect="non-scaling-stroke" />
    <path
       d="M 169.17802,6.4066466 V 41.844647 h -3 v 24.375 h 3 v 24.375 h -3 v 24.375003 h 3 v 24.375 11.062 h 35.438 v 3 h 24.375 v -3 h 24.375 v 3 h 24.375 v -3 h 24.375 11.062 v -35.437 h 3 V 90.594647 h -3 v -24.375 h 3 v -24.375 h -3 v -24.375 -11.0630004 h -35.437 v -3 h -24.375 v 3 h -24.375 v -3 h -24.375 v 3 h -24.375 z"
       id="bottom_outsideCutPath"
       stroke="#FF0000"
       stroke-width="0.1"
       style="stroke:#ff0000;stroke-width:0.529167;stroke-miterlimit:4;stroke-dasharray:none"
       vector-effect="non-scaling-stroke" />
    <path
       d="m 291.95268,86.6019 h -2.432 v -10.445 a 7.174,7.174 0 0 0 -0.072,-1.055 q -0.172,-1.149 -0.748,-1.823 -0.821,-0.96 -2.549,-0.96 a 6.257,6.257 0 0 0 -1.274,0.121 q -1.327,0.277 -2.081,1.183 a 4.018,4.018 0 0 0 -0.681,1.233 q -0.403,1.129 -0.403,2.781 v 8.965 h -2.431 v -10.445 a 7.174,7.174 0 0 0 -0.073,-1.055 q -0.171,-1.149 -0.748,-1.823 a 2.551,2.551 0 0 0 -1.173,-0.763 q -0.422,-0.138 -0.938,-0.179 a 5.694,5.694 0 0 0 -0.452,-0.018 6.039,6.039 0 0 0 -1.249,0.121 q -0.771,0.163 -1.345,0.546 a 3.187,3.187 0 0 0 -0.753,0.703 q -0.963,1.241 -1.053,3.92 a 16.93,16.93 0 0 0 -0.009,0.57 v 8.423 h -2.432 v -16.055 h 1.978 l 0.395,2.197 h 0.117 a 4.779,4.779 0 0 1 1.941,-1.831 5.773,5.773 0 0 1 2.28,-0.64 6.973,6.973 0 0 1 0.525,-0.019 7.961,7.961 0 0 1 1.792,0.187 q 1.103,0.255 1.871,0.858 a 4.151,4.151 0 0 1 1.259,1.68 h 0.117 a 5.077,5.077 0 0 1 1.913,-1.899 6.1,6.1 0 0 1 0.167,-0.094 6.154,6.154 0 0 1 2.258,-0.686 7.674,7.674 0 0 1 0.848,-0.046 8.453,8.453 0 0 1 1.533,0.13 q 0.852,0.157 1.518,0.506 a 4.007,4.007 0 0 1 1.029,0.763 4.187,4.187 0 0 1 0.899,1.471 q 0.242,0.648 0.355,1.455 a 11.153,11.153 0 0 1 0.101,1.549 z m -96.27,-2.066 h -0.176 l -0.512,2.066 h -1.744 v -22.793 h 2.432 v 5.537 q 0,1.86 -0.117,3.34 h 0.117 q 1.699,-2.403 5.039,-2.403 a 7.432,7.432 0 0 1 2.092,0.279 5.563,5.563 0 0 1 2.823,1.882 q 1.75,2.161 1.75,6.116 a 14.257,14.257 0 0 1 -0.189,2.399 q -0.388,2.272 -1.576,3.746 a 5.757,5.757 0 0 1 -4.091,2.150999 8.247,8.247 0 0 1 -0.809,0.039 7.376,7.376 0 0 1 -1.853,-0.225999 6.418,6.418 0 0 1 -1.011,-0.353 5.386,5.386 0 0 1 -2.175,-1.78 z m 41.455,0.059 v 1.86 a 2.392,2.392 0 0 1 -0.284,0.113 q -0.352,0.116 -0.88,0.202 -0.718,0.115999 -1.302,0.123999 a 6.232,6.232 0 0 1 -0.083,10e-4 6.351,6.351 0 0 1 -1.871,-0.251999 q -2.058,-0.635 -2.596,-2.87 a 7.643,7.643 0 0 1 -0.191,-1.786 v -9.55 h -2.3 v -1.172 l 2.3,-1.011 1.025,-3.428 h 1.407 v 3.721 h 4.658 v 1.89 h -4.658 v 9.448 q 0,1.019 0.34,1.705 a 2.359,2.359 0 0 0 0.348,0.521 2.259,2.259 0 0 0 1.389,0.74 3.25,3.25 0 0 0 0.501,0.037 7.986,7.986 0 0 0 1.17,-0.084 7.359,7.359 0 0 0 0.075,-0.011 13.154,13.154 0 0 0 0.351,-0.061 q 0.359,-0.067 0.601,-0.137 z m 10.591,0 v 1.86 a 2.392,2.392 0 0 1 -0.284,0.113 q -0.352,0.116 -0.881,0.202 -0.718,0.115999 -1.302,0.123999 a 6.232,6.232 0 0 1 -0.082,10e-4 6.351,6.351 0 0 1 -1.872,-0.251999 q -2.057,-0.635 -2.595,-2.87 a 7.643,7.643 0 0 1 -0.191,-1.786 v -9.55 h -2.3 v -1.172 l 2.3,-1.011 1.025,-3.428 h 1.406 v 3.721 h 4.659 v 1.89 h -4.659 v 9.448 q 0,1.019 0.34,1.705 a 2.359,2.359 0 0 0 0.349,0.521 2.259,2.259 0 0 0 1.389,0.74 3.25,3.25 0 0 0 0.501,0.037 7.986,7.986 0 0 0 1.169,-0.084 7.359,7.359 0 0 0 0.076,-0.011 13.154,13.154 0 0 0 0.351,-0.061 q 0.359,-0.067 0.601,-0.137 z m -22.46,-3.592 a 12.56,12.56 0 0 0 0.224,-2.443 14.272,14.272 0 0 0 -0.006,-0.386 q -0.036,-1.337 -0.325,-2.472 a 7.572,7.572 0 0 0 -1.654,-3.207 6.366,6.366 0 0 0 -2.956,-1.906 8.171,8.171 0 0 0 -2.398,-0.335 9.444,9.444 0 0 0 -1.697,0.146 6.432,6.432 0 0 0 -3.753,2.044 q -1.962,2.19 -1.962,6.116 a 12.165,12.165 0 0 0 0.152,1.97 8.995,8.995 0 0 0 0.756,2.453 7.992,7.992 0 0 0 0.177,0.347 6.583,6.583 0 0 0 2.401,2.554 6.771,6.771 0 0 0 1.554,0.691 7.809,7.809 0 0 0 2.269,0.319999 9.442,9.442 0 0 0 1.649,-0.137999 6.483,6.483 0 0 0 3.815,-2.067 6.783,6.783 0 0 0 0.808,-1.11 q 0.659,-1.127 0.946,-2.577 z m 39.302,0 a 12.56,12.56 0 0 0 0.223,-2.443 14.272,14.272 0 0 0 -0.005,-0.386 q -0.036,-1.337 -0.325,-2.472 a 7.572,7.572 0 0 0 -1.655,-3.207 6.366,6.366 0 0 0 -2.955,-1.906 8.171,8.171 0 0 0 -2.399,-0.335 9.444,9.444 0 0 0 -1.696,0.146 6.432,6.432 0 0 0 -3.753,2.044 q -1.963,2.19 -1.963,6.116 a 12.165,12.165 0 0 0 0.153,1.97 8.995,8.995 0 0 0 0.756,2.453 7.992,7.992 0 0 0 0.177,0.347 6.583,6.583 0 0 0 2.401,2.554 6.771,6.771 0 0 0 1.554,0.691 7.809,7.809 0 0 0 2.269,0.319999 9.442,9.442 0 0 0 1.649,-0.137999 6.483,6.483 0 0 0 3.815,-2.067 6.783,6.783 0 0 0 0.807,-1.11 q 0.659,-1.127 0.947,-2.577 z m -51.31,-2.443 a 12.314,12.314 0 0 0 0.117,1.759 q 0.13,0.893 0.401,1.616 a 5.101,5.101 0 0 0 0.713,1.312 3.985,3.985 0 0 0 2.595,1.529 6.039,6.039 0 0 0 1.023,0.082 5.648,5.648 0 0 0 1.49,-0.185 3.931,3.931 0 0 0 2.135,-1.419 5.22,5.22 0 0 0 0.813,-1.583 q 0.239,-0.731 0.344,-1.624 a 12.809,12.809 0 0 0 0.081,-1.487 12.133,12.133 0 0 0 -0.115,-1.729 q -0.262,-1.817 -1.123,-2.922 a 4,4 0 0 0 -2.487,-1.484 6.133,6.133 0 0 0 -1.168,-0.106 5.787,5.787 0 0 0 -1.44,0.169 3.873,3.873 0 0 0 -2.163,1.399 5.028,5.028 0 0 0 -0.782,1.51 q -0.434,1.307 -0.434,3.163 z m 39.302,0 a 12.314,12.314 0 0 0 0.117,1.759 q 0.129,0.893 0.401,1.616 a 5.101,5.101 0 0 0 0.712,1.312 3.985,3.985 0 0 0 2.596,1.529 6.039,6.039 0 0 0 1.022,0.082 5.648,5.648 0 0 0 1.491,-0.185 3.931,3.931 0 0 0 2.135,-1.419 5.22,5.22 0 0 0 0.813,-1.583 q 0.239,-0.731 0.343,-1.624 a 12.809,12.809 0 0 0 0.082,-1.487 12.133,12.133 0 0 0 -0.115,-1.729 q -0.262,-1.817 -1.123,-2.922 a 4,4 0 0 0 -2.487,-1.484 6.133,6.133 0 0 0 -1.168,-0.106 5.787,5.787 0 0 0 -1.441,0.169 3.873,3.873 0 0 0 -2.162,1.399 5.028,5.028 0 0 0 -0.782,1.51 q -0.434,1.307 -0.434,3.163 z m -52.193,-6.241 q -2.49,0 -3.588,1.429 -0.966,1.254 -1.083,4.019 a 18.735,18.735 0 0 0 -0.016,0.793 16.078,16.078 0 0 0 0.08,1.661 q 0.174,1.677 0.734,2.697 a 3.668,3.668 0 0 0 0.314,0.483 3.528,3.528 0 0 0 1.789,1.208 q 0.599,0.187 1.328,0.234 a 7.819,7.819 0 0 0 0.501,0.015 4.847,4.847 0 0 0 1.377,-0.184 3.497,3.497 0 0 0 1.963,-1.449 q 0.785,-1.167 1.009,-3.062 a 13.933,13.933 0 0 0 0.09,-1.633 14.366,14.366 0 0 0 -0.087,-1.637 q -0.222,-1.93 -1.012,-3.036 a 3.546,3.546 0 0 0 -2.258,-1.428 5.624,5.624 0 0 0 -1.141,-0.11 z"
       id="bottom_labelLayer"
       stroke="#777777"
       fill="#777777"
       style="fill:#777777;stroke:#777777"
       vector-effect="non-scaling-stroke" />
  </g>
</svg>
